# xmcd
#
# Track frame offsets:
#	150
#	20921
#	34177
#	37652
#	47442
#	50062
#	54064
#	65831
#	73888
#	89061
#	98848
#	103429
#	109612
#	125192
#	137667
#	145571
#	152236
#	157157
#	172610
#	183249
#	191166
#
# Disc length: 2735 seconds
#
# Revision: 0
# Processed by: cddbd v1.5.2PL0 Copyright (c) Steve Scherf et al.
# Submitted via: Collectorz.com Music Collector 1.0
#
DISCID=310aad15
DTITLE=Wilson, Tim - But I Could Be Wrong
DYEAR=2007
DGENRE=Comedy
TTITLE0=Southern Accents
TTITLE1=But I Could Be Wrong
TTITLE2=No Smoker Show
TTITLE3=Old Dude In The Front
TTITLE4=Women Tickle Me
TTITLE5=Bed Pan Man
TTITLE6=Starve To Damn Death
TTITLE7=Hot Ass Station Wagons
TTITLE8=Grocery Store Lady
TTITLE9=Deddy Worked
TTITLE10=Libertarian
TTITLE11=FEMA
TTITLE12=Way Out In The Country
TTITLE13=Explaining Bill Monroe
TTITLE14=Jane Ketchup Stain
TTITLE15=Reality TV/Paul Sr./Dog The Bounty Hunter
TTITLE16=Steroids In Sports
TTITLE17=Disco Ball
TTITLE18=Duke And Clint
TTITLE19=Pork Rind Airlines
TTITLE20=Sick of Me
EXTD=
EXTT0=
EXTT1=
EXTT2=
EXTT3=
EXTT4=
EXTT5=
EXTT6=
EXTT7=
EXTT8=
EXTT9=
EXTT10=
EXTT11=
EXTT12=
EXTT13=
EXTT14=
EXTT15=
EXTT16=
EXTT17=
EXTT18=
EXTT19=
EXTT20=
PLAYORDER=
